<mxfile host="app.diagrams.net" modified="2022-06-21T03:24:44.787Z" agent="5.0 (X11; Linux x86_64) AppleWebKit/537.36 (KHTML, like Gecko) Chrome/102.0.0.0 Safari/537.36" etag="n-1r8nYhCC5gV3Bj-xGV" version="20.0.0" type="github">
  <diagram id="P3pDYhxM5VSlkDJfRx9B" name="第 1 页">
    <mxGraphModel dx="1363" dy="773" grid="1" gridSize="10" guides="1" tooltips="1" connect="1" arrows="1" fold="1" page="1" pageScale="1" pageWidth="850" pageHeight="1100" math="0" shadow="0">
      <root>
        <mxCell id="0" />
        <mxCell id="1" parent="0" />
        <mxCell id="N4SQtz1-ipX6x-QNF63d-2" value="" style="rounded=0;whiteSpace=wrap;html=1;fillColor=#4E4EC2;" vertex="1" parent="1">
          <mxGeometry x="160" y="160" width="400" height="610" as="geometry" />
        </mxCell>
        <mxCell id="N4SQtz1-ipX6x-QNF63d-3" value="" style="rounded=1;whiteSpace=wrap;html=1;fillColor=#FFCCFF;" vertex="1" parent="1">
          <mxGeometry x="180" y="230" width="360" height="130" as="geometry" />
        </mxCell>
        <mxCell id="N4SQtz1-ipX6x-QNF63d-5" value="" style="shape=offPageConnector;whiteSpace=wrap;html=1;fillColor=#16D3F0;direction=north;" vertex="1" parent="1">
          <mxGeometry x="210" y="250" width="120" height="80" as="geometry" />
        </mxCell>
        <mxCell id="N4SQtz1-ipX6x-QNF63d-7" value="" style="shape=offPageConnector;whiteSpace=wrap;html=1;fillColor=#16D3F0;direction=north;" vertex="1" parent="1">
          <mxGeometry x="350" y="250" width="120" height="80" as="geometry" />
        </mxCell>
      </root>
    </mxGraphModel>
  </diagram>
</mxfile>
